#tb 0: 1/12
0,          0,          0,        1,   230400, 0x0655b3d9
0,          1,          1,        1,   230400, 0x9c626fd3
0,          2,          2,        1,   230400, 0x5bc95868
0,          3,          3,        1,   230400, 0x55a38387
0,          4,          4,        1,   230400, 0xd3495b60
0,          5,          5,        1,   230400, 0xecdb2d15
0,          6,          6,        1,   230400, 0x7f9b373e
0,          7,          7,        1,   230400, 0x51caac22
0,          8,          8,        1,   230400, 0x0f2ac153
0,          9,          9,        1,   230400, 0xe5a6f9e7
0,         10,         10,        1,   230400, 0xfc2b2250
0,         11,         11,        1,   230400, 0x24e2da1b
0,         12,         12,        1,   230400, 0x2723d7dd
0,         13,         13,        1,   230400, 0x024a4989
0,         14,         14,        1,   230400, 0xdbafb92d
0,         15,         15,        1,   230400, 0x6b9b5056
0,         16,         16,        1,   230400, 0x010cabb4
0,         17,         17,        1,   230400, 0xf75bc1c0
0,         18,         18,        1,   230400, 0x6c7fd744
0,         19,         19,        1,   230400, 0xabe4371a
0,         20,         20,        1,   230400, 0xe41fb781
0,         21,         21,        1,   230400, 0x42c5649e
0,         22,         22,        1,   230400, 0xf5511deb
0,         23,         23,        1,   230400, 0xebf5ab32
0,         24,         24,        1,   230400, 0x44398194
0,         25,         25,        1,   230400, 0xfd63510c
0,         26,         26,        1,   230400, 0xa013975e
0,         27,         27,        1,   230400, 0xe0aa028d
0,         28,         28,        1,   230400, 0x349f6f3b
0,         29,         29,        1,   230400, 0x2446032c
0,         30,         30,        1,   230400, 0x648f122c
0,         31,         31,        1,   230400, 0xbda221fd
0,         32,         32,        1,   230400, 0xf0f97642
0,         33,         33,        1,   230400, 0x6a1737de
0,         34,         34,        1,   230400, 0x808a8179
0,         35,         35,        1,   230400, 0x121641cf
0,         36,         36,        1,   230400, 0x275d11ea
0,         37,         37,        1,   230400, 0x92adf2cf
